<svg xmlns="http://www.w3.org/2000/svg" xmlns:xlink="http://www.w3.org/1999/xlink" xml:space="preserve" version="1.1" style="shape-rendering:geometricPrecision;text-rendering:geometricPrecision;image-rendering:optimizeQuality;" viewBox="0 0 218 272.5" x="0px" y="0px" fill-rule="evenodd" clip-rule="evenodd"><defs><style type="text/css">
   
    .fil0 {fill:black}
   
  </style></defs><g><path class="fil0" d="M3 16l13 -13c4,-4 10,-4 14,0l79 79 79 -79c4,-4 11,-4 14,0l13 13c4,4 4,10 0,14l-79 79 79 79c4,4 4,11 0,14l-13 13c-3,4 -10,4 -14,0l-79 -79 -79 79c-4,4 -10,4 -14,0l-13 -13c-4,-3 -4,-10 0,-14l79 -79 -79 -79c-4,-4 -4,-10 0,-14z"/></g><text x="0" y="233" fill="#000000" font-size="5px" font-weight="bold" font-family="'Helvetica Neue', Helvetica, Arial-Unicode, Arial, Sans-serif">Created by kareemovic2000</text><text x="0" y="238" fill="#000000" font-size="5px" font-weight="bold" font-family="'Helvetica Neue', Helvetica, Arial-Unicode, Arial, Sans-serif">from the Noun Project</text></svg>