<svg xmlns="http://www.w3.org/2000/svg" viewBox="0 0 13 15" fill="none" x="0px" y="0px"><path d="M0.0610134 10.3011C0.00361995 10.4669 -0.0136159 10.6441 0.0107208 10.8179C0.0350575 10.9917 0.100273 11.1573 0.201013 11.3011C0.335442 11.4773 0.512372 11.6165 0.715246 11.7056C0.91812 11.7948 1.14031 11.8311 1.36101 11.8111H11.061C11.2793 11.8265 11.4981 11.787 11.6972 11.6962C11.8964 11.6054 12.0696 11.4661 12.201 11.2911C12.2979 11.1455 12.3601 10.9796 12.3826 10.8062C12.4051 10.6328 12.3875 10.4566 12.331 10.2911C12.0141 9.42911 11.5203 8.64304 10.8814 7.98341C10.2424 7.32379 9.47244 6.80522 8.62101 6.46106C9.18797 5.96975 9.59122 5.3169 9.77673 4.58998C9.96224 3.86306 9.92115 3.09681 9.65896 2.3939C9.39678 1.69099 8.92602 1.08501 8.30977 0.65715C7.69352 0.229292 6.96123 0 6.21101 0C5.4608 0 4.7285 0.229292 4.11226 0.65715C3.49601 1.08501 3.02525 1.69099 2.76306 2.3939C2.50088 3.09681 2.45979 3.86306 2.6453 4.58998C2.83081 5.3169 3.23406 5.96975 3.80101 6.46106C2.94337 6.80336 2.16724 7.32209 1.52294 7.98362C0.878648 8.64514 0.380573 9.43468 0.0610134 10.3011ZM5.11101 7.11106C5.24362 7.123 5.37554 7.08176 5.47775 6.99643C5.57995 6.9111 5.64408 6.78867 5.65601 6.65606C5.66795 6.52345 5.62672 6.39153 5.54139 6.28933C5.45606 6.18712 5.33362 6.123 5.20101 6.11106C4.62356 5.87882 4.14494 5.45283 3.84731 4.90621C3.54967 4.35958 3.45157 3.7264 3.56985 3.11534C3.68812 2.50427 4.0154 1.95343 4.4955 1.55734C4.97561 1.16125 5.57861 0.944618 6.20101 0.944618C6.82342 0.944618 7.42642 1.16125 7.90652 1.55734C8.38663 1.95343 8.7139 2.50427 8.83218 3.11534C8.95046 3.7264 8.85236 4.35958 8.55472 4.90621C8.25708 5.45283 7.77847 5.87882 7.20101 6.11106C7.0684 6.123 6.94597 6.18712 6.86064 6.28933C6.77531 6.39153 6.73408 6.52345 6.74601 6.65606C6.75795 6.78867 6.82207 6.9111 6.92428 6.99643C7.02649 7.08176 7.1584 7.123 7.29101 7.11106C8.21478 7.29546 9.07656 7.71153 9.79547 8.32024C10.5144 8.92895 11.0668 9.71034 11.401 10.5911C11.414 10.63 11.414 10.6721 11.401 10.7111C11.401 10.7711 11.241 10.8011 11.081 10.8011H1.36101C1.14101 10.8011 1.04101 10.7411 1.00101 10.6411C1.3282 9.75101 1.87759 8.95944 2.59696 8.34158C3.31633 7.72373 4.18177 7.30013 5.11101 7.11106Z" fill="black"/><text x="0" y="27" fill="#000000" font-size="5px" font-weight="bold" font-family="'Helvetica Neue', Helvetica, Arial-Unicode, Arial, Sans-serif">Created by Oliver Silvérus</text><text x="0" y="32" fill="#000000" font-size="5px" font-weight="bold" font-family="'Helvetica Neue', Helvetica, Arial-Unicode, Arial, Sans-serif">from the Noun Project</text></svg>