<svg xmlns="http://www.w3.org/2000/svg" xmlns:xlink="http://www.w3.org/1999/xlink" version="1.1" x="0px" y="0px" viewBox="0 0 512 640" style="enable-background:new 0 0 512 512;" xml:space="preserve"><path d="M353.5,343.6c25.6-28,41.3-65.3,41.3-106.2c0-86.8-70.6-157.4-157.4-157.4S80,150.6,80,237.4c0,86.8,70.6,157.4,157.4,157.4  c40.9,0,78.2-15.7,106.2-41.3l78.5,78.5l9.9-9.9L353.5,343.6z M237.4,380.8C158.3,380.8,94,316.5,94,237.4  C94,158.4,158.4,94,237.4,94c79.1,0,143.4,64.3,143.4,143.4S316.5,380.8,237.4,380.8z"/><text x="0" y="527" fill="#000000" font-size="5px" font-weight="bold" font-family="'Helvetica Neue', Helvetica, Arial-Unicode, Arial, Sans-serif">Created by Kavya</text><text x="0" y="532" fill="#000000" font-size="5px" font-weight="bold" font-family="'Helvetica Neue', Helvetica, Arial-Unicode, Arial, Sans-serif">from the Noun Project</text></svg>