<?xml version="1.0" encoding="utf-8"?>
<!-- Generator: Adobe Illustrator 16.0.0, SVG Export Plug-In . SVG Version: 6.00 Build 0)  -->
<!DOCTYPE svg PUBLIC "-//W3C//DTD SVG 1.1//EN" "http://www.w3.org/Graphics/SVG/1.1/DTD/svg11.dtd">
<svg version="1.1" id="Layer_1" xmlns="http://www.w3.org/2000/svg" xmlns:xlink="http://www.w3.org/1999/xlink" x="0px" y="0px"
	 width="408.863px" height="47.427px" viewBox="0 0 408.863 47.427" enable-background="new 0 0 408.863 47.427"
	 xml:space="preserve">
<g>
	<path d="M23.361,47.254c-1.665,0-3.276-0.156-4.836-0.468c-2.289-0.467-4.524-1.297-6.708-2.491S7.684,41.57,5.972,39.7
		c-1.712-1.868-3.091-4.088-4.134-6.657c-1.043-2.568-1.565-5.463-1.565-8.682s0.521-6.113,1.565-8.683
		c1.043-2.569,2.421-4.802,4.134-6.697c1.712-1.894,3.661-3.438,5.845-4.632c2.184-1.195,4.419-2.025,6.708-2.493
		c1.56-0.311,3.171-0.466,4.836-0.466c2.028,0,4.056,0.254,6.084,0.764s3.951,1.301,5.772,2.379c1.82,1.077,3.51,2.486,5.07,4.228
		c1.56,1.743,2.886,3.861,3.978,6.356c0.468,1.041,0.156,1.848-0.936,2.419c-0.573,0.261-1.066,0.261-1.482,0
		c-0.417-0.26-0.754-0.598-1.014-1.015c-0.936-2.131-2.081-3.926-3.432-5.381c-1.353-1.456-2.808-2.639-4.368-3.55
		c-1.56-0.909-3.172-1.56-4.836-1.95c-1.665-0.39-3.276-0.585-4.836-0.585c-0.676,0-1.378,0.026-2.106,0.078
		c-0.729,0.053-1.404,0.13-2.028,0.233c-1.716,0.415-3.484,1.103-5.304,2.063c-1.821,0.961-3.471,2.22-4.953,3.775
		c-1.482,1.559-2.691,3.427-3.627,5.605c-0.936,2.18-1.404,4.67-1.404,7.473c0,2.906,0.468,5.45,1.404,7.629
		c0.936,2.18,2.132,4.048,3.588,5.604c1.456,1.559,3.093,2.79,4.914,3.698c1.82,0.909,3.614,1.544,5.382,1.907
		c0.675,0.156,1.377,0.271,2.106,0.35c0.728,0.078,1.455,0.117,2.184,0.117c1.56,0,3.159-0.221,4.797-0.663
		c1.638-0.44,3.224-1.144,4.758-2.106c1.533-0.961,2.976-2.17,4.329-3.627c1.352-1.455,2.496-3.197,3.432-5.226
		c0.259-0.415,0.597-0.741,1.014-0.976c0.416-0.233,0.884-0.22,1.404,0.039c1.092,0.521,1.43,1.326,1.014,2.418
		c-1.041,2.393-2.353,4.447-3.939,6.162c-1.586,1.717-3.303,3.141-5.148,4.273c-1.846,1.133-3.783,1.977-5.811,2.535
		C27.339,46.977,25.336,47.254,23.361,47.254z"/>
	<path d="M90.948,1c1.221,0,1.833,0.624,1.833,1.872v42.276c0,1.248-0.612,1.871-1.833,1.871c-1.223,0-1.833-0.623-1.833-1.871
		V17.38H54.716v27.769c0,0.467-0.156,0.896-0.468,1.287c-0.312,0.389-0.754,0.584-1.326,0.584c-1.248,0-1.872-0.623-1.872-1.871
		V2.872C51.051,1.624,51.674,1,52.922,1c0.572,0,1.014,0.193,1.326,0.581s0.468,0.814,0.468,1.28v10.853h34.398V2.861
		C89.115,1.62,89.725,1,90.948,1z"/>
	<path d="M143.246,1.313c1.248,0,1.872,0.597,1.872,1.791v42.281c0,1.193-0.624,1.791-1.872,1.791c-0.521,0-0.949-0.168-1.287-0.507
		c-0.339-0.337-0.507-0.767-0.507-1.287v-8.657c-1.041,1.559-2.25,2.977-3.627,4.25c-1.378,1.275-2.899,2.379-4.563,3.315
		c-1.665,0.937-3.432,1.651-5.304,2.146s-3.822,0.74-5.85,0.74c-3.173,0-6.15-0.596-8.931-1.79
		c-2.783-1.194-5.214-2.829-7.293-4.905c-2.081-2.077-3.719-4.504-4.914-7.281c-1.197-2.777-1.794-5.75-1.794-8.916
		s0.597-6.151,1.794-8.955c1.195-2.803,2.833-5.242,4.914-7.319c2.079-2.077,4.51-3.711,7.293-4.905
		c2.781-1.194,5.758-1.791,8.931-1.791c4.056,0,7.786,0.963,11.193,2.885c3.405,1.925,6.123,4.474,8.151,7.645V3.105
		c0-0.519,0.168-0.947,0.507-1.287C142.297,1.481,142.726,1.313,143.246,1.313z M122.108,43.51c2.652,0,5.16-0.506,7.527-1.518
		c2.366-1.012,4.419-2.399,6.162-4.164c1.741-1.765,3.12-3.814,4.134-6.15c1.014-2.334,1.521-4.826,1.521-7.473
		s-0.507-5.137-1.521-7.473c-1.014-2.335-2.393-4.373-4.134-6.11c-1.743-1.738-3.796-3.114-6.162-4.126
		c-2.367-1.012-4.875-1.518-7.527-1.518c-2.652,0-5.148,0.506-7.488,1.518s-4.381,2.388-6.123,4.126
		c-1.743,1.737-3.12,3.775-4.134,6.11c-1.014,2.336-1.521,4.826-1.521,7.473s0.507,5.139,1.521,7.473
		c1.014,2.336,2.391,4.386,4.134,6.15c1.742,1.765,3.783,3.152,6.123,4.164S119.456,43.51,122.108,43.51z"/>
	<path d="M175.147,1.078c3.171,0,6.162,0.598,8.97,1.794s5.251,2.835,7.332,4.914c2.079,2.08,3.717,4.512,4.914,7.293
		c1.195,2.782,1.794,5.76,1.794,8.931v21.217c0,1.196-0.624,1.793-1.872,1.793c-0.521,0-0.949-0.168-1.287-0.507
		c-0.339-0.337-0.507-0.767-0.507-1.286V24.01c0-2.652-0.507-5.148-1.521-7.488c-1.014-2.34-2.393-4.38-4.134-6.123
		c-1.743-1.741-3.796-3.119-6.162-4.133c-2.367-1.015-4.875-1.521-7.527-1.521c-2.652,0-5.148,0.507-7.488,1.521
		c-2.34,1.014-4.381,2.392-6.123,4.133c-1.743,1.743-3.12,3.783-4.134,6.123c-1.014,2.34-1.521,4.836-1.521,7.488v21.217
		c0,0.52-0.169,0.949-0.507,1.286c-0.339,0.339-0.768,0.507-1.287,0.507c-1.248,0-1.872-0.597-1.872-1.793V2.872
		c0-1.196,0.624-1.794,1.872-1.794c0.52,0,0.948,0.169,1.287,0.507c0.338,0.339,0.507,0.768,0.507,1.287v8.735
		c2.028-3.171,4.745-5.719,8.151-7.644C167.438,2.041,171.142,1.078,175.147,1.078z"/>
	<path d="M250.572,24.244c0,2.027-0.286,4.043-0.857,6.045c-0.573,2.002-1.326,3.836-2.262,5.499
		c-1.145,1.925-2.484,3.601-4.018,5.03c-1.534,1.432-3.159,2.627-4.875,3.588c-1.716,0.963-3.51,1.678-5.382,2.146
		s-3.693,0.702-5.46,0.702h-0.624c-0.105,0-0.222-0.012-0.351-0.039c-0.13-0.025-0.248-0.039-0.351-0.039
		c-1.56-0.104-3.094-0.35-4.602-0.74c-1.509-0.389-2.938-0.921-4.29-1.596c-1.665-0.777-3.225-1.791-4.68-3.036
		c-1.457-1.245-2.769-2.687-3.939-4.321c-1.17-1.637-2.12-3.453-2.847-5.452c-0.729-1.999-1.17-4.165-1.326-6.502
		c-0.104-1.089-0.104-2.206,0-3.348c0.208-2.804,0.832-5.308,1.872-7.514c1.04-2.206,2.34-4.153,3.9-5.841
		c1.56-1.686,3.327-3.088,5.304-4.204c1.976-1.116,3.978-1.96,6.006-2.531l-0.078,0.077c0.312-0.104,0.52-0.155,0.624-0.155
		c0.208-0.156,0.441-0.26,0.702-0.312c0.572-0.155,1.248-0.259,2.028-0.311c0.78-0.052,1.638-0.078,2.574-0.078
		c1.976,0,3.978,0.268,6.006,0.801c2.028,0.535,3.978,1.368,5.85,2.496c1.872,1.131,3.6,2.553,5.187,4.269
		c1.585,1.716,2.898,3.771,3.939,6.162c0.362,0.988,0,1.821-1.093,2.496c-1.04,0.468-1.768,0.104-2.184-1.093v0.078
		c-0.833-1.871-1.911-3.549-3.237-5.031c-1.326-1.481-2.808-2.716-4.446-3.704c-1.638-0.987-3.393-1.729-5.265-2.221
		c-1.872-0.493-3.771-0.688-5.694-0.587c-0.573,0.052-1.08,0.091-1.521,0.116c-0.442,0.026-0.975,0.092-1.599,0.195h-0.078
		c-0.312,0.104-0.495,0.155-0.546,0.155c-0.208,0.105-0.495,0.156-0.858,0.156l-0.078,0.078c-3.952,1.301-7.137,3.498-9.555,6.592
		s-3.783,6.617-4.095,10.568c-0.052,0.261-0.078,0.495-0.078,0.702c0,0.208,0,0.442,0,0.702v1.014
		c0.104,0.936,0.259,1.898,0.468,2.887c0.675,3.225,2.015,6.045,4.017,8.463c2.001,2.418,4.458,4.225,7.371,5.42
		c1.195,0.469,2.34,0.833,3.432,1.093c0.884,0.208,1.689,0.339,2.418,0.39c0.572,0.053,1.17,0.078,1.794,0.078
		c0.624,0,1.221-0.051,1.794-0.156c3.276-0.312,6.188-1.326,8.736-3.041c2.547-1.717,4.575-3.952,6.084-6.709v0.078l1.014-1.949
		c0.363-0.937,0.663-1.873,0.897-2.809c0.234-0.936,0.402-1.924,0.506-2.964h-27.689c-1.197,0-1.794-0.597-1.794-1.794
		c0-1.248,0.597-1.872,1.794-1.872H248.7C249.948,22.372,250.572,22.996,250.572,24.244z"/>
	<path d="M279.744,47.176c-3.225,0-6.228-0.596-9.009-1.79c-2.782-1.194-5.2-2.829-7.254-4.905c-2.055-2.077-3.68-4.504-4.875-7.281
		c-1.197-2.777-1.794-5.75-1.794-8.916s0.597-6.151,1.794-8.955c1.195-2.803,2.82-5.242,4.875-7.319
		c2.054-2.077,4.472-3.711,7.254-4.905c2.781-1.194,5.784-1.791,9.009-1.791c3.171,0,6.162,0.597,8.97,1.791
		c2.809,1.194,5.252,2.828,7.332,4.905c2.079,2.077,3.718,4.517,4.914,7.319c1.196,2.804,1.794,5.789,1.794,8.955
		s-0.598,6.139-1.794,8.916s-2.835,5.204-4.914,7.281c-2.08,2.076-4.523,3.711-7.332,4.905
		C285.906,46.58,282.915,47.176,279.744,47.176z M279.744,4.979c-2.652,0-5.147,0.506-7.488,1.518
		c-2.34,1.012-4.381,2.388-6.123,4.126c-1.742,1.737-3.119,3.775-4.134,6.11c-1.014,2.336-1.521,4.826-1.521,7.473
		s0.507,5.139,1.521,7.473c1.015,2.336,2.392,4.386,4.134,6.15s3.783,3.152,6.123,4.164c2.341,1.012,4.836,1.518,7.488,1.518
		s5.16-0.506,7.527-1.518c2.365-1.012,4.419-2.399,6.162-4.164c1.741-1.765,3.12-3.814,4.134-6.15
		c1.014-2.334,1.521-4.826,1.521-7.473s-0.507-5.137-1.521-7.473c-1.014-2.335-2.393-4.373-4.134-6.11
		c-1.743-1.738-3.797-3.114-6.162-4.126C284.904,5.484,282.396,4.979,279.744,4.979z"/>
	<path d="M332.004,47.176c-3.225,0-6.228-0.596-9.009-1.79c-2.782-1.194-5.2-2.829-7.254-4.905c-2.055-2.077-3.68-4.504-4.875-7.281
		c-1.197-2.777-1.794-5.75-1.794-8.916s0.597-6.151,1.794-8.955c1.195-2.803,2.82-5.242,4.875-7.319
		c2.054-2.077,4.472-3.711,7.254-4.905c2.781-1.194,5.784-1.791,9.009-1.791c3.171,0,6.162,0.597,8.97,1.791
		c2.809,1.194,5.252,2.828,7.332,4.905c2.079,2.077,3.718,4.517,4.914,7.319c1.196,2.804,1.794,5.789,1.794,8.955
		s-0.598,6.139-1.794,8.916s-2.835,5.204-4.914,7.281c-2.08,2.076-4.523,3.711-7.332,4.905
		C338.166,46.58,335.175,47.176,332.004,47.176z M332.004,4.979c-2.652,0-5.147,0.506-7.488,1.518
		c-2.34,1.012-4.381,2.388-6.123,4.126c-1.742,1.737-3.119,3.775-4.134,6.11c-1.014,2.336-1.521,4.826-1.521,7.473
		s0.507,5.139,1.521,7.473c1.015,2.336,2.392,4.386,4.134,6.15s3.783,3.152,6.123,4.164c2.341,1.012,4.836,1.518,7.488,1.518
		s5.16-0.506,7.527-1.518c2.365-1.012,4.419-2.399,6.162-4.164c1.741-1.765,3.12-3.814,4.134-6.15
		c1.014-2.334,1.521-4.826,1.521-7.473s-0.507-5.137-1.521-7.473c-1.014-2.335-2.393-4.373-4.134-6.11
		c-1.743-1.738-3.797-3.114-6.162-4.126C337.164,5.484,334.656,4.979,332.004,4.979z"/>
	<path d="M362.853,1.156c1.222,0,1.833,0.623,1.833,1.871v7.099c0,1.248-0.611,1.872-1.833,1.872s-1.833-0.624-1.833-1.872V3.027
		C361.02,1.779,361.631,1.156,362.853,1.156z"/>
	<path d="M384.391,46.813c-2.539-0.558-5.098-1.637-7.674-3.236c-2.758-1.75-4.931-3.852-6.521-6.308s-2.421-4.968-2.495-7.54
		c-0.029-0.593,0.134-1.035,0.491-1.33c0.356-0.293,0.787-0.492,1.289-0.596c1.252,0.116,1.889,0.734,1.908,1.857
		c0.054,1.448,0.372,2.784,0.957,4.003c0.583,1.22,1.279,2.292,2.089,3.215c0.808,0.923,1.6,1.684,2.374,2.279
		s1.373,1.02,1.796,1.272c2.248,1.4,4.465,2.339,6.648,2.819c1.168,0.257,2.308,0.401,3.419,0.434
		c1.11,0.032,2.294-0.027,3.553-0.175c2.931-0.256,5.386-1.069,7.364-2.439c1.978-1.368,3.25-3.104,3.819-5.208
		c0.49-1.748,0.271-3.479-0.655-5.195c-0.928-1.717-2.434-3.28-4.519-4.694c-1.029-0.65-2.151-1.175-3.367-1.575
		c-1.217-0.4-2.423-0.784-3.62-1.153c-0.102-0.022-0.176-0.052-0.22-0.089c-0.046-0.036-0.119-0.065-0.221-0.088l-1.795-0.554
		c-0.842-0.291-1.686-0.568-2.532-0.834c-0.847-0.267-1.654-0.59-2.421-0.971c-1.729-0.855-3.204-2.017-4.427-3.479
		c-1.224-1.462-1.998-3.024-2.324-4.689c-0.224-1.161-0.219-2.274,0.015-3.338c0.289-1.314,0.944-2.604,1.968-3.863
		c1.612-1.767,3.775-2.949,6.49-3.547c2.713-0.597,5.719-0.532,9.021,0.193c3.493,0.819,6.493,2.185,9.003,4.094
		c2.508,1.909,4.171,4.151,4.99,6.728c0.113,0.451,0.083,0.831-0.09,1.138c-0.176,0.309-0.556,0.585-1.141,0.828
		c-1.167,0.222-1.907-0.047-2.219-0.808c-0.597-1.889-1.924-3.604-3.979-5.146c-2.057-1.543-4.509-2.628-7.352-3.253
		c-2.642-0.58-5.003-0.674-7.087-0.279c-2.082,0.394-3.693,1.237-4.829,2.532c-0.59,0.508-0.981,1.195-1.171,2.059
		c-0.078,0.355-0.109,0.682-0.095,0.977c0.015,0.297,0.032,0.634,0.058,1.011c0.193,1.055,0.743,2.068,1.648,3.038
		c0.904,0.971,1.947,1.8,3.127,2.484c0.808,0.443,1.603,0.765,2.384,0.963c0.781,0.199,1.517,0.427,2.206,0.684
		c0.254,0.057,0.501,0.139,0.745,0.244c0.242,0.107,0.465,0.183,0.669,0.227c0.202,0.045,0.378,0.098,0.525,0.156
		c0.146,0.06,0.321,0.11,0.524,0.155c1.297,0.393,2.578,0.807,3.839,1.243c1.262,0.437,2.491,1.08,3.689,1.929
		c2.729,1.878,4.682,4.011,5.861,6.399c1.179,2.389,1.463,4.848,0.854,7.375c-0.738,2.872-2.407,5.261-5.008,7.164
		c-2.603,1.904-5.729,3.043-9.375,3.411c-1.461,0.105-2.849,0.12-4.163,0.043C387.104,47.303,385.763,47.114,384.391,46.813z"/>
</g>
</svg>
